<svg width="1142" height="442" viewBox="0 0 1142 442" fill="none" xmlns="http://www.w3.org/2000/svg">
<path d="M72.25 1.47656H1V74.8099M72.25 1.47656V74.8099M72.25 1.47656H143.5M72.25 74.8099H1M72.25 74.8099V148.143M72.25 74.8099H143.5M1 74.8099V148.143M72.25 148.143H1M72.25 148.143V221.477M72.25 148.143H143.5M1 148.143V221.477M72.25 221.477H1M72.25 221.477V294.81M72.25 221.477H143.5M1 221.477V294.81M72.25 294.81H1M72.25 294.81V368.143M72.25 294.81H143.5M1 294.81V368.143M72.25 368.143H1M72.25 368.143V441.477M72.25 368.143H143.5M1 368.143V441.477H72.25M72.25 441.477H143.5M143.5 1.47656V74.8099M143.5 1.47656H214.75M143.5 74.8099V148.143M143.5 74.8099H214.75M143.5 148.143V221.477M143.5 148.143H214.75M143.5 221.477V294.81M143.5 221.477H214.75M143.5 294.81V368.143M143.5 294.81H214.75M143.5 368.143V441.477M143.5 368.143H214.75M143.5 441.477H214.75M214.75 1.47656V74.8099M214.75 1.47656H286M214.75 74.8099V148.143M214.75 74.8099H286M214.75 148.143V221.477M214.75 148.143H286M214.75 221.477V294.81M214.75 221.477H286M214.75 294.81V368.143M214.75 294.81H286M214.75 368.143V441.477M214.75 368.143H286M214.75 441.477H286M286 1.47656V74.8099M286 1.47656H357.25M286 74.8099V148.143M286 74.8099H357.25M286 148.143V221.477M286 148.143H357.25M286 221.477V294.81M286 221.477H357.25M286 294.81V368.143M286 294.81H357.25M286 368.143V441.477M286 368.143H357.25M286 441.477H357.25M357.25 1.47656V74.8099M357.25 1.47656H428.5M357.25 74.8099V148.143M357.25 74.8099H428.5M357.25 148.143V221.477M357.25 148.143H428.5M357.25 221.477V294.81M357.25 221.477H428.5M357.25 294.81V368.143M357.25 294.81H428.5M357.25 368.143V441.477M357.25 368.143H428.5M357.25 441.477H428.5M428.5 1.47656V74.8099M428.5 1.47656H499.75M428.5 74.8099V148.143M428.5 74.8099H499.75M428.5 148.143V221.477M428.5 148.143H499.75M428.5 221.477V294.81M428.5 221.477H499.75M428.5 294.81V368.143M428.5 294.81H499.75M428.5 368.143V441.477M428.5 368.143H499.75M428.5 441.477H499.75M499.75 1.47656V74.8099M499.75 1.47656H571M499.75 74.8099V148.143M499.75 74.8099H571M499.75 148.143V221.477M499.75 148.143H571M499.75 221.477V294.81M499.75 221.477H571M499.75 294.81V368.143M499.75 294.81H571M499.75 368.143V441.477M499.75 368.143H571M499.75 441.477H571M571 1.47656V74.8099M571 1.47656H642.25M571 74.8099V148.143M571 74.8099H642.25M571 148.143V221.477M571 148.143H642.25M571 221.477V294.81M571 221.477H642.25M571 294.81V368.143M571 294.81H642.25M571 368.143V441.477M571 368.143H642.25M571 441.477H642.25M642.25 1.47656V74.8099M642.25 1.47656H713.5M642.25 74.8099V148.143M642.25 74.8099H713.5M642.25 148.143V221.477M642.25 148.143H713.5M642.25 221.477V294.81M642.25 221.477H713.5M642.25 294.81V368.143M642.25 294.81H713.5M642.25 368.143V441.477M642.25 368.143H713.5M642.25 441.477H713.5M713.5 1.47656V74.8099M713.5 1.47656H784.75M713.5 74.8099V148.143M713.5 74.8099H784.75M713.5 148.143V221.477M713.5 148.143H784.75M713.5 221.477V294.81M713.5 221.477H784.75M713.5 294.81V368.143M713.5 294.81H784.75M713.5 368.143V441.477M713.5 368.143H784.75M713.5 441.477H784.75M784.75 1.47656V74.8099M784.75 1.47656H856M784.75 74.8099V148.143M784.75 74.8099H856M784.75 148.143V221.477M784.75 148.143H856M784.75 221.477V294.81M784.75 221.477H856M784.75 294.81V368.143M784.75 294.81H856M784.75 368.143V441.477M784.75 368.143H856M784.75 441.477H856M856 1.47656V74.8099M856 1.47656H927.25M856 74.8099V148.143M856 74.8099H927.25M856 148.143V221.477M856 148.143H927.25M856 221.477V294.81M856 221.477H927.25M856 294.81V368.143M856 294.81H927.25M856 368.143V441.477M856 368.143H927.25M856 441.477H927.25M927.25 1.47656V74.8099M927.25 1.47656H998.5M927.25 74.8099V148.143M927.25 74.8099H998.5M927.25 148.143V221.477M927.25 148.143H998.5M927.25 221.477V294.81M927.25 221.477H998.5M927.25 294.81V368.143M927.25 294.81H998.5M927.25 368.143V441.477M927.25 368.143H998.5M927.25 441.477H998.5M998.5 1.47656V74.8099M998.5 1.47656H1069.75M998.5 74.8099V148.143M998.5 74.8099H1069.75M998.5 148.143V221.477M998.5 148.143H1069.75M998.5 221.477V294.81M998.5 221.477H1069.75M998.5 294.81V368.143M998.5 294.81H1069.75M998.5 368.143V441.477M998.5 368.143H1069.75M998.5 441.477H1069.75M1069.75 1.47656V74.8099M1069.75 1.47656H1141V74.8099M1069.75 74.8099V148.143M1069.75 74.8099H1141M1069.75 148.143V221.477M1069.75 148.143H1141M1069.75 221.477V294.81M1069.75 221.477H1141M1069.75 294.81V368.143M1069.75 294.81H1141M1069.75 368.143V441.477M1069.75 368.143H1141M1069.75 441.477H1141V368.143M1141 74.8099V148.143M1141 148.143V221.477M1141 221.477V294.81M1141 294.81V368.143" stroke="url(#paint0_radial_11429_1889)"/>
<defs>
<radialGradient id="paint0_radial_11429_1889" cx="0" cy="0" r="1" gradientUnits="userSpaceOnUse" gradientTransform="translate(571 221.477) rotate(90) scale(220 570)">
<stop stop-color="#008B62"/>
<stop offset="1" stop-color="#008B62" stop-opacity="0"/>
</radialGradient>
</defs>
</svg>
