<svg width="42" height="40" viewBox="0 0 42 40" fill="none" xmlns="http://www.w3.org/2000/svg">
<g filter="url(#filter0_d_10994_8760)">
<rect width="40" height="40" rx="20" fill="white"/>
<rect x="0.5" y="0.5" width="39" height="39" rx="19.5" stroke="#E2E4E9"/>
<path d="M26 27.5H24.5V26C24.5 25.4033 24.2629 24.831 23.841 24.409C23.419 23.9871 22.8467 23.75 22.25 23.75H17.75C17.1533 23.75 16.581 23.9871 16.159 24.409C15.7371 24.831 15.5 25.4033 15.5 26V27.5H14V26C14 25.0054 14.3951 24.0516 15.0983 23.3483C15.8016 22.6451 16.7554 22.25 17.75 22.25H22.25C23.2446 22.25 24.1984 22.6451 24.9017 23.3483C25.6049 24.0516 26 25.0054 26 26V27.5ZM20 20.75C19.4091 20.75 18.8239 20.6336 18.2779 20.4075C17.732 20.1813 17.2359 19.8498 16.818 19.432C16.4002 19.0141 16.0687 18.518 15.8425 17.9721C15.6164 17.4261 15.5 16.8409 15.5 16.25C15.5 15.6591 15.6164 15.0739 15.8425 14.5279C16.0687 13.982 16.4002 13.4859 16.818 13.068C17.2359 12.6502 17.732 12.3187 18.2779 12.0925C18.8239 11.8664 19.4091 11.75 20 11.75C21.1935 11.75 22.3381 12.2241 23.182 13.068C24.0259 13.9119 24.5 15.0565 24.5 16.25C24.5 17.4435 24.0259 18.5881 23.182 19.432C22.3381 20.2759 21.1935 20.75 20 20.75ZM20 19.25C20.7956 19.25 21.5587 18.9339 22.1213 18.3713C22.6839 17.8087 23 17.0456 23 16.25C23 15.4544 22.6839 14.6913 22.1213 14.1287C21.5587 13.5661 20.7956 13.25 20 13.25C19.2044 13.25 18.4413 13.5661 17.8787 14.1287C17.3161 14.6913 17 15.4544 17 16.25C17 17.0456 17.3161 17.8087 17.8787 18.3713C18.4413 18.9339 19.2044 19.25 20 19.25Z" fill="#525866"/>
</g>
<defs>
<filter id="filter0_d_10994_8760" x="-2" y="-1" width="44" height="44" filterUnits="userSpaceOnUse" color-interpolation-filters="sRGB">
<feFlood flood-opacity="0" result="BackgroundImageFix"/>
<feColorMatrix in="SourceAlpha" type="matrix" values="0 0 0 0 0 0 0 0 0 0 0 0 0 0 0 0 0 0 127 0" result="hardAlpha"/>
<feOffset dy="1"/>
<feGaussianBlur stdDeviation="1"/>
<feComposite in2="hardAlpha" operator="out"/>
<feColorMatrix type="matrix" values="0 0 0 0 0.894118 0 0 0 0 0.898039 0 0 0 0 0.905882 0 0 0 0.24 0"/>
<feBlend mode="normal" in2="BackgroundImageFix" result="effect1_dropShadow_10994_8760"/>
<feBlend mode="normal" in="SourceGraphic" in2="effect1_dropShadow_10994_8760" result="shape"/>
</filter>
</defs>
</svg>
