<svg width="32" height="33" viewBox="0 0 32 33" fill="none" xmlns="http://www.w3.org/2000/svg">
<g clip-path="url(#clip0_10994_15149)">
<path d="M31.9569 17.6998H26.2412C21.2485 17.6998 17.2012 21.7472 17.2012 26.7398V32.4555C25.0811 31.8712 31.3725 25.5797 31.9569 17.6998Z" fill="#036246"/>
<path d="M14.8006 32.4555V26.7398C14.8006 21.7472 10.7533 17.6998 5.7606 17.6998H0.0449219C0.629189 25.5797 6.92068 31.8712 14.8006 32.4555Z" fill="#036246"/>
<path d="M31.9569 15.2999C31.3725 7.41994 25.0811 1.12846 17.2012 0.544189V6.25986C17.2012 11.2525 21.2485 15.2999 26.2412 15.2999H31.9569Z" fill="#036246"/>
<path d="M14.8006 0.544189C6.92068 1.12846 0.629189 7.41994 0.0449219 15.2999H5.7606C10.7533 15.2999 14.8006 11.2525 14.8006 6.25986V0.544189Z" fill="#036246"/>
<path d="M10.8652 16.4998C13.0832 15.3916 14.8908 13.584 15.999 11.366C17.1072 13.584 18.9148 15.3916 21.1328 16.4998C18.9148 17.608 17.1072 19.4156 15.999 21.6336C14.8908 19.4156 13.0832 17.608 10.8652 16.4998Z" fill="#04503B"/>
</g>
<defs>
<clipPath id="clip0_10994_15149">
<rect width="32" height="32" fill="white" transform="translate(0 0.5)"/>
</clipPath>
</defs>
</svg>
