<svg width="196" height="183" viewBox="0 0 196 183" fill="none" xmlns="http://www.w3.org/2000/svg">
<path d="M194.941 91.7156C195.554 91.4099 195.7 91.4718 195.78 92.1228C195.858 92.7599 195.94 93.4014 195.952 94.0427C196.023 97.8286 196.057 101.617 195.741 105.394C195.205 111.78 194.137 118.073 192.415 124.252C190.576 130.849 188.09 137.19 184.921 143.26C181.636 149.551 177.741 155.44 173.164 160.873C170.976 163.469 168.709 165.991 166.264 168.347C160.814 173.598 154.84 178.17 148.356 182.073C147.975 182.303 147.556 182.761 147.115 182.527C146.649 182.28 146.869 181.683 146.867 181.241C146.856 177.881 146.863 174.523 146.863 171.164C146.863 167.841 146.864 164.519 146.862 161.196C146.862 160.661 146.869 160.127 146.688 159.607C145.991 157.612 143.683 156.796 141.736 157.894C139.776 158.999 137.837 160.142 135.889 161.267C127.257 166.249 118.624 171.231 109.994 176.214C106.591 178.178 103.171 180.115 99.7948 182.125C97.8879 183.259 96.1043 183.285 94.161 182.155C84.2801 176.408 74.3669 170.716 64.4667 165.003C61.0948 163.056 57.7029 161.142 54.3622 159.143C52.3642 157.948 50.0396 158.94 49.3563 160.738C49.1343 161.324 49.1337 161.927 49.1337 162.534C49.1337 168.715 49.1402 174.895 49.1219 181.077C49.1209 181.581 49.4011 182.276 48.8456 182.548C48.3974 182.767 47.9285 182.266 47.5135 182.011C41.7661 178.503 36.3811 174.519 31.4305 169.938C23.5177 162.616 17.0179 154.215 11.8602 144.757C6.40032 134.743 2.85576 124.085 1.10437 112.828C0.632472 109.795 0.34828 106.74 0.143433 103.672C-0.0635603 100.562 0.0176308 97.4592 0.00476074 94.3533C0.00476461 94.2816 0.00653058 94.2111 0.00866699 94.1394C0.0601471 92.4845 0.160635 92.4172 1.57312 93.2312C8.32127 97.1179 15.0635 101.015 21.8085 104.907C30.9041 110.156 40.002 115.402 49.0966 120.653C56.5515 124.958 64.0028 129.272 71.4589 133.576C79.3169 138.111 87.1824 142.634 95.035 147.179C96.3446 147.938 97.5913 147.915 98.8837 147.169C112.556 139.272 126.233 131.382 139.906 123.488C151.909 116.559 163.912 109.627 175.915 102.698C182.133 99.1084 188.353 95.5219 194.572 91.9333C194.695 91.8615 194.814 91.7789 194.941 91.7156ZM172.75 36.5134C173.788 35.9171 173.805 35.9101 174.587 36.8796C177.488 40.4725 180.079 44.2802 182.427 48.2527C184.903 52.4418 187.038 56.8026 188.871 61.3113C189.316 62.4063 189.306 62.4045 188.313 62.9783C178.881 68.4308 169.451 73.8896 160.016 79.3357C148.6 85.9251 137.175 92.5032 125.759 99.0916C117.251 104.001 108.746 108.919 100.244 113.841C99.4257 114.314 98.5951 114.703 97.6073 114.571C96.5832 114.722 95.738 114.239 94.8983 113.756C92.112 112.151 89.3309 110.537 86.5468 108.93C78.7197 104.412 70.8904 99.8972 63.0634 95.3777C56.9695 91.8589 50.879 88.332 44.7841 84.8142C37.0191 80.3311 29.2493 75.8548 21.4833 71.3728C16.8426 68.6948 12.2019 66.014 7.56335 63.3328C6.58441 62.7666 6.55215 62.6893 6.97253 61.6394C9.86506 54.4076 13.5656 47.6141 18.0819 41.2693C19.0963 39.8442 20.1631 38.4554 21.2333 37.071C21.8939 36.2153 21.9961 36.2139 22.9042 36.7371C32.7432 42.4137 42.5827 48.0936 52.4218 53.7703C62.8497 59.787 73.2792 65.8002 83.705 71.8191C87.4489 73.9801 91.1859 76.1517 94.9266 78.3181C95.2043 78.4789 95.4869 78.6339 95.7645 78.7947C97.0601 79.5465 98.3359 79.5082 99.6229 78.7478C101.406 77.6936 103.203 76.6606 104.997 75.6257C112.762 71.1427 120.529 66.6624 128.294 62.1794C134.234 58.7507 140.173 55.3182 146.112 51.8894C153.073 47.8708 160.035 43.8533 166.995 39.8347C168.912 38.728 170.829 37.617 172.75 36.5134ZM96.6005 0.00463867C110.64 -0.0156911 122.925 2.40978 134.774 7.1394C135.79 7.54479 136.212 8.11928 136.331 9.15308C136.925 14.3129 136.748 19.4191 135.408 24.4587C133.887 30.1815 131.221 35.3198 127.347 39.7878C122.33 45.5718 116.141 49.5874 108.768 51.7302C104.546 52.9571 100.229 53.4956 95.8466 53.2136C87.939 52.7042 80.7588 50.1115 74.4803 45.2488C66.4795 39.0519 61.619 30.9107 59.8729 20.946C59.1663 16.9105 59.1654 12.8492 59.7723 8.78687C59.8935 7.9773 60.2411 7.54271 60.9979 7.23706C68.1848 4.33809 75.5975 2.26305 83.2616 1.11011C88.1038 0.381907 92.9723 -0.0554202 96.6005 0.00463867Z" fill="#036246"/>
</svg>
